<svg id="Layer_1" data-name="Layer 1" xmlns="http://www.w3.org/2000/svg" viewBox="0 0 1349.08 1464.1">
  <defs>
    
  </defs>
  <g>
    <path class="cls-3" d="M1001.6,960.84s11.44,98.19,43.76,140.71c32.6,42.9,66.07,74.64,69.5,106.39,3.43,31.75,18.88,76.36,36.04,97.81,17.16,21.45,29.17,38.61,30.03,62.63.86,24.02,6.01,56.63,19.73,71.21,0,0,19.73-114.11-10.3-179.32-30.03-65.21-56.63-60.49-85.8-138.56-29.17-78.08-28.31-80.22-102.96-160.87h0Z"></path>
    <path class="cls-3" d="M1198.93,1366.38s7.15-61.49,21.45-78.08c14.3-16.59,62.92-73.21,82.37-88.09,19.45-14.87,46.33-42.9,46.33-42.9,0,0-44.61,81.79-50.33,90.95-5.72,9.15-54.34,20.59-62.92,41.18-8.58,20.59-36.89,76.93-36.89,76.93Z"></path>
    <path class="cls-3" d="M1190.07,1298.6s5.15-120.12,13.73-168.17c8.58-48.05,5.15-86.94,10.3-121.26,5.15-34.32,36.04-69.21,37.75-84.08,0,0-17.73,67.5-14.87,105.25,2.86,37.75,15.44,75.5,3.43,110.39-12.01,34.89-28.6,61.2-31.46,90.37-2.86,29.17-18.88,67.49-18.88,67.49Z"></path>
    <path class="cls-3" d="M1202.36,1184.78s-6.01-99.53-11.15-130.41c-5.15-30.89-3.43-81.51-3.43-105.53s-17.16-62.63-19.73-80.65c-2.57-18.02,0-40.33,0-40.33,0,0-18.9,32.19-16.3,81.51,2.57,48.9,34.89,176.46,37.18,209.63,2.29,33.18,13.44,65.78,13.44,65.78Z"></path>
    <path class="cls-3" d="M1145.52,1041.06s15.37,19.02,17.66,28.17c2.29,9.15,19.45,48.05,33.18,73.79,0,0-17.73-25.74-32.6-36.04-14.87-10.3-19.38-40.75-18.23-65.92Z"></path>
  </g>
  <path class="cls-9" d="M1.3,1463.62s-73.52,0,884.87,0h418.88c16.54,2.58,31.81-5.41,37.35-18.38,5.04-11.81-1.51-24.18-6.42-32.5-2.69-4.55-31.36,7.8-39.45,11.73-7.02,3.41-10.24,5.5-14.06,8.07-1.47.99-5.27,4.55-6.58,4.77-4.33.74-10.59-6.88-14.15-9.66-38.93-30.44-90.71-42.43-139.34-35.53-24.42,3.46-48.25,11.74-69.12,24.99-1.7,1.08-7.36,6.56-9.47,6.51-3.29-.08-4.98-3.4-7.37-5.39-3.99-3.3-8.52-5.85-13.29-7.86-10.04-4.24-21.04-5.84-31.86-6.53-29.34-1.87-59.8,1.54-87.58,11.33-6.15,2.17-11.98,5.6-18.12,7.65-7.64,2.55-10.14-.88-16.92-4.64-11.05-6.12-23.07-10.48-35.18-13.99-26.22-7.58-56.8-14.11-84.25-13.77-19.34.24-41.43,11.59-40.15,32.4-29.01-14.32-61.1-12.37-92.7-8.3-39.44,5.07-77.03,11-115.73-1.82-33.33-11.04-65.07-30.03-101.15-29.6-24.9.3-49.89,9.16-63.28,30.81-24.57-21.97-64.84-18.1-84.95,7.99-34.07-20.03-77.62-16.39-108.07,8.63-31.47-52.08-107.42-47.18-132.99,6.93"></path>
  <g>
    <path class="cls-6" d="M554.16,1054.36s2.57,176.74,14.59,314.02c0,0-10.3,40.33-6.01,80.65h128.7l-2.57-58.34-39.47-21.74,23.17-318.03-118.4,3.43Z"></path>
    <path class="cls-4" d="M554.8,1441.96s-2.36,10.51-1.07,21.66h228.91s4.84-15.31-9.07-27c-13.9-11.69-27-12.69-46.74-25.39-19.74-12.69-37.68-27-42.51-27.6-4.83-.6-16.32,9.67-22.36,21.36-6.04,11.69-10.32,20.44-12.78,23.56-3.23,4.09-8.9,13.62-26.49,13.41-8.38-.1-67.89,0-67.89,0Z"></path>
    <path class="cls-6" d="M646.68,1149.03s-132.74,52.43-317.45,183.61c-39.47,28.03-50.48,76.07-46.19,116.4h128.7l-2.57-58.34-14.16-15.16,375.22-162.44-123.55-64.06Z"></path>
    <path class="cls-4" d="M275.1,1441.96s-2.36,10.51-1.07,21.66h228.91s4.84-15.31-9.07-27c-13.9-11.69-27-12.69-46.74-25.39-19.74-12.69-37.67-27-42.51-27.6-4.84-.6-16.32,9.67-22.36,21.36-6.04,11.69-10.32,20.44-12.78,23.56-3.23,4.09-8.9,13.62-26.49,13.41-8.38-.1-67.89,0-67.89,0Z"></path>
    <path class="cls-8" d="M1016.48,837.85l-31.9,54.49-15,25.6s-.44.22-1.23.61c-6.19,3.07-34.91,15.95-61.29,7.7-76.63-24.04-244.49-149.74-244.49-149.74l31.06-225.75.78-5.58,28.05-203.84.78-5.47,8.53-62.18s12.21,9.7,27.33,25.71c1.51,1.62,3.07,3.23,4.63,4.96,23.76,26.16,52.14,66.09,52.81,107.91.73,44.62-.34,127.77-1.23,184.65-.06,2.01-.06,3.96-.11,5.91-.5,31.96-.95,54.26-.95,54.26l195.08,174.33,4.18,3.74,2.96,2.68Z"></path>
    <path class="cls-6" d="M1052.07,869.18s82.8,28.03,93.66,32.03c10.87,4,37.75,18.88,38.32,32.6.57,13.73-.71,47.33-64.63,42.9-63.34-4.39-122.98-52.62-122.98-52.62l55.63-54.91Z"></path>
    <path class="cls-8" d="M760.5,313.92c-.37-45.33-146.43-80.08-146.43-80.08,0,0-233.37,368.36-217.36,439.29,16.02,70.93,305.44,179.6,312.31,164.73,6.86-14.87,52.62-383.23,51.48-523.94Z"></path>
    <path class="cls-5" d="M723.83,720.84c-1.64,32.53-4.7,64.93-9.24,97.19-.48,3.44,4.78,4.93,5.27,1.45,4.61-32.74,7.77-65.62,9.43-98.64.18-3.51-5.29-3.5-5.46,0h0Z"></path>
    <path class="cls-5" d="M626.34,708.35c51.77,16.01,110.78,17.73,164.06,9.45,3.46-.54,1.99-5.8-1.45-5.27-52.29,8.12-110.43,6.23-161.16-9.45-3.37-1.04-4.81,4.23-1.45,5.27h0Z"></path>
    <path class="cls-14" d="M888.06,1244.55c-56.72,30.28-114.5,46.2-197.49,67.95-1.9.5-3.79,1-5.63,1.45-58.33,15.11-116.05,27.83-163.74,37.48-1.79.39-3.57.72-5.35,1.06-64.64,12.99-109.42,20.19-109.42,20.19-58.33-37.76-69.21-95.53-69.21-95.53,41.16-24.15,91.29-57.33,134.01-86.55,1.62-1.11,3.24-2.23,4.8-3.23,50.08-34.35,88.84-62.35,88.84-62.35-40.49-19.91-78.13-39.43-112.82-57.78-2.06-1.12-4.13-2.18-6.14-3.29-43.56-23.09-82.43-44.28-116.78-62.18-5.02-2.68-9.93-5.19-14.78-7.7-25.88-13.27-49.58-22.92-69.21-32.62-98.27-48.52-78.91-178.46-78.91-178.46,130.95-138.42,515.36,46.9,515.36,46.9,0,0,16.67,15.39,41.55,38.48,1.67,1.62,3.4,3.24,5.19,4.85,64.02,59.67,149.83,155.66,178.61,190.02,41.16,49.19,49,145.13-18.88,181.32Z"></path>
    <path class="cls-7" d="M687.46,1128.38c27.76-14.88,55.51-29.77,83.27-44.65,3.1-1.66.34-6.38-2.76-4.72-27.76,14.88-55.51,29.77-83.27,44.65-3.1,1.66-.34,6.38,2.76,4.72h0Z"></path>
    <path class="cls-14" d="M433.9,960.56s62.92,376.65,88.09,390.38c25.17,13.73,116.11,14.3,149.29-1.72,33.18-16.02,53.77-533.09,53.77-533.09,0,0-17.16-101.81-125.84-129.27-108.68-27.46-382.09,17.16-382.09,17.16,0,0-44.62,5.72-50.91,78.93l267.69,177.6Z"></path>
    <path class="cls-8" d="M666.7,245.31s-6.25,27.61-19.46,69.93c-.56,1.79-1.17,3.63-1.78,5.52-30.73,96.7-96.26,263.4-205.23,359.15l-.06.06c-1.39,1.23-2.73,2.4-4.13,3.57-157.05,136.47-218.95,94.86-218.95,94.86,0,0-.56.28-1.56.78-1.45.78-3.96,1.95-7.14,3.4-11.49,5.07-32.07,12.66-46.18,9.54-20.58-4.57,24.04-138.42,91.52-248.28,38.65-62.85,99.1-146.95,153.36-211.75,2.68-3.18,5.35-6.36,7.97-9.42,37.36-43.84,71.05-77.3,91.46-86.55,37.42-16.95,78.47-14.17,109.64-7.36,1.84.39,3.68.78,5.41,1.23,26.88,6.47,45.12,15.34,45.12,15.34Z"></path>
    <path class="cls-11" d="M550.6,539.21c17.09-11.12,35.15-20.03,54.41-26.74,3.3-1.15,1.88-6.43-1.45-5.27-19.67,6.86-38.25,15.93-55.71,27.29-2.94,1.91-.2,6.64,2.76,4.72h0Z"></path>
    <path class="cls-11" d="M518.37,507.54c28.61-2.25,56.85-.74,85.05,4.68,3.44.66,4.91-4.6,1.45-5.27-28.62-5.5-57.44-7.16-86.5-4.87-3.48.27-3.51,5.74,0,5.46h0Z"></path>
    <path class="cls-6" d="M880.48,659.83s50.48,47.33,57.34,63.63c6.86,16.3,14.01,104.53,13.58,113.97-.43,9.44-18.45,10.72-39.9-6.43-12.59-10.07-33.75-78.36-33.75-78.36l-44.47-23.74,47.19-69.07Z"></path>
    <path class="cls-13" d="M834.17,741.15l-57.11-32.62,24.26-111.76s32.9,12.72,38.26,26.04c0,0,.06.06.17.11.56.28,2.29,1.23,4.8,2.62,11.99,6.8,41.55,23.81,42.77,27.44,1.51,4.52-53.15,88.17-53.15,88.17Z"></path>
    <path class="cls-13" d="M1065.11,873.6c-.06.61-1.28,3.12-3.4,6.86-8.76,15.84-32.23,54.32-39.93,66.03-1.34,2.06-2.23,3.29-2.45,3.46-1,.72-26.32-14.95-46.57-27.72-1.62-1-3.18-2.01-4.68-2.96-11.6-7.31-20.52-13.05-20.52-13.05l45.62-45.06,12.83-12.72,10.48-10.6s48.91,32.07,48.63,35.75Z"></path>
    <path class="cls-1" d="M865.03,138.39s4.72,28.31-10.3,52.98c-6.2,10.18-23.17,15.01-23.17,15.01l33.46-67.99Z"></path>
    <path class="cls-6" d="M817.81,251.93c-20.3,30.78-55.8,27.6-57.95,27.38-.07.03-.12,0-.12,0,0,0-.91,1.92-2.41,5.03-6.04,12.39-12.73,24.85-14.48,29.62,0,0-12.48-5.82-37.16-15.79-37.25-15.05-60.25-41.07-60.25-41.07,0,0,39.17-84.01,45.63-104.63,6.47-20.5,32.21-64.59,60.9-71.52,28.74-7.02,83.18,28.28,93.38,44.33,10.18,16.11,15.76,21.69,8.54,38.93-5.65,13.42-22.07,66.41-36.08,87.71Z"></path>
    <path class="cls-12" d="M622.8,230.13s36.04-7.86,37.75-5.29c1.72,2.57,3.03,30.99,34.2,67.6,0,0-26.91,12.05-49.65-11.68-22.74-23.74-22.31-50.62-22.31-50.62Z"></path>
    <path class="cls-12" d="M705.68,298.18s34.88-1.35,50.1-11.14c2-1.29,3,12.3,3,12.3,0,0-4,25.31-20.59,21.88-16.59-3.43-32.51-23.04-32.51-23.04Z"></path>
    <path class="cls-10" d="M769.75,233.08l31.47,13.94s2.1,2.9-1.09,4.82c-3.43,2.06-7,3.97-10.97,4.73-5.5,1.05-10.95-.56-15.05-4.36-2.23-2.06-4.01-4.61-5.37-7.32-1.21-2.42-2.29-5.47-2.25-8.2.04-2.45,1.61-4.34,3.26-3.61Z"></path>
    <path class="cls-1" d="M797.83,219.54c-12.31-5.59-33.18-11.73-53.34,3.72,0,0,4.32,8.02,16.87,13.58,11.86,5.26,22.38,8.22,22.38,8.22,0,0,10.1,6.49,18.04,10.01,13.24,5.87,17.35,2.93,17.35,2.93,0,0,14.8-22.07-21.31-38.47Z"></path>
    <path class="cls-2" d="M759.85,279.31c-.07.03-.12,0-.12,0,0,0-.91,1.92-2.41,5.03-15.03-5.45-27.89-15.11-37.67-28.41-2.13-2.9,2.2-6.47,4.31-3.52,9.35,12.75,21.51,21.92,35.9,26.9Z"></path>
    <path class="cls-15" d="M787.33,176.9c-.58,2.06-1.39,4.44-3.59,6.58-3.99,3.87-8.75.1-7.67-5.01.44-2.07,2.03-4.78,3.58-6.58,3.53-4.06,9.25-.63,7.67,5.01Z"></path>
    <path class="cls-15" d="M833.64,197.87c-.58,2.06-1.39,4.44-3.59,6.58-3.99,3.87-8.75.1-7.67-5.01.44-2.07,2.03-4.78,3.58-6.58,3.53-4.06,9.25-.63,7.67,5.01Z"></path>
    <path class="cls-2" d="M804.26,194.98c.87,4.36,2.2,9.22,2.17,13.68-.03,4.13-1.06,5.17-5.02,5.64-1.88.23-3.88.11-5.77.16-3.59.09-3.13,5.64.45,5.56,5.23-.13,12.25.39,15.13-5.08,2.87-5.45-.29-14.88-1.4-20.41-.7-3.48-6.27-3.07-5.56.45h0Z"></path>
    <path class="cls-1" d="M886.83,99.13c-3.68-6.45-8.62-12.46-14.6-16.92-4.81-3.59-14.45-5.26-17.83-9.99-2.76-3.86-3.23-9.87-6.61-14.18-3.46-4.41-7.74-8.16-12.46-11.15-5.61-3.56-11.95-6.07-18.5-7.27-7.15-1.31-13.14.84-20.09.48-10.85-.56-11.7-8.72-19.23-13.8-4.9-3.31-10.96-4.43-16.75-4.79-14.36-.9-28.62,4.31-40.05,12.79-27.96,20.74-40.03,57.62-40.46,91.19,0,.12.06.22.08.33-7.84,23.45-10.9,49.18-10.01,76.51.19,5.81,45.77-25.13,45.77-25.13l27.52-30.18s22.43.95,36.14.23c6.99-.37,13.31-1.16,18.89-2.15,1.27.27,2.49.59,3.55,1.06,2.2.98,4.2,4.37,6.06,6.27,5.39,5.53,12.06,10.11,18.93,13.63,7.93,4.07,15.83,6.17,23.81,5.44l.26.35s.11-.16.29-.43c4.27-.46,8.17-5.71,12.51-7.95,11.86-6.12,24.85-12.71,29.33-25.52.04-.12.02-.22.05-.34.05-.13.13-.23.16-.38,2.74-13.15-.1-26.49-6.74-38.12Z"></path>
    <path class="cls-8" d="M910.41,90.77v.06c0,2.23-.11,4.35-.22,6.41-3.79,73.06-34.8,71.11-46.12,67.65-9.59-2.9-25.38-20.8-32.35-29.22-2.23-2.62-3.57-4.35-3.57-4.35-.06.06-.17.06-.22.06-3.4.73-46.79,9.98-82.31,15.23-64.75,9.59-80.87.28-86.05-14.89-.56-1.73-1.01-3.46-1.39-5.3-.5-2.57-.84-5.24-1.17-7.98-4.18-34.86,12.88-82.98,26.6-93.91,13.66-10.99,50.25-17.12,50.25-17.12,0,0,1.34-.84,4.41-1.95,2.45-.95,6.02-2.01,10.93-3.01,12.16-2.4,32.29-4.02,63.08.06,42.61,5.58,58.39,24.15,63.8,33.69,1.78,3.12,2.46,5.3,2.51,5.69l.06.06c9.87,1.67,31.17,9.76,31.73,27.49.22,7.7.28,14.84.06,21.36Z"></path>
    <path class="cls-11" d="M878.56,41.86c-56.16-5.47-112.77-3.57-168.59,5.63-3.46.56-4.91-4.68-1.45-5.24,41.66-6.92,83.65-9.76,125.59-8.59,6.41.17,12.77.45,19.19.84,7.58.39,15.17.95,22.75,1.67,1.78,3.12,2.46,5.3,2.51,5.69Z"></path>
    <path class="cls-11" d="M910.41,90.83c0,2.23-.11,4.35-.22,6.41-25.21,14.78-51.42,27.55-78.47,38.43-2.23-2.62-3.57-4.35-3.57-4.35,28.44-11.38,55.88-24.87,82.26-40.49Z"></path>
    <path class="cls-11" d="M851.35,39.52c-5.74-1.95-11.49-3.9-17.23-5.86-31.62-10.65-63.46-20.86-95.87-28.22,2.45-.95,6.02-2.01,10.93-3.01,35.02,8.59,69.38,20.13,103.62,31.79.17.06.33.11.5.28,2.62,1.39,1.23,6.08-1.95,5.02Z"></path>
    <path class="cls-11" d="M752.53,110.96c-30.67,8.31-61.68,15.22-92.97,20.75-.56-1.73-1.01-3.46-1.39-5.3,31.29-5.52,62.24-12.38,92.91-20.75,3.4-.95,4.85,4.35,1.45,5.3Z"></path>
    <path class="cls-6" d="M746.14,152.92s-3.17-19.23-18.91-15.76c-12.67,2.79-19.68,26.18-16.59,35.9,3.09,9.72,5.54,12.39,5.54,12.39l29.96-32.52Z"></path>
    <path class="cls-7" d="M438.97,1002.17c0-.26.14-.41.2-.63-1.27.05-2.56.11-3.8.11-40.49,1.23-80.98-1.34-121.02-7.59,4.85,2.51,9.76,5.02,14.78,7.7,34.52,4.52,69.32,6.36,104.18,5.41,1.8,0,3.59-.06,5.38-.15.02-1.86.25-3.73.28-4.84Z"></path>
    <path class="cls-7" d="M474.57,890.11c-9.26,37.7-20.41,74.84-33.41,111.37-.67,1.84-1.34,3.68-2.01,5.52-1.95.11-3.9.17-5.86.17.73-1.84,1.39-3.68,2.06-5.52,13.16-37.03,24.48-74.73,33.96-112.99.84-3.46,6.08-2.01,5.24,1.45Z"></path>
    <path class="cls-7" d="M452.04,1067.23c-2.06-1.12-4.13-2.18-6.14-3.29-3.74-20.19-7.25-40.38-10.6-60.62-.56-3.46,4.68-4.91,5.3-1.45,3.57,21.86,7.42,43.61,11.43,65.36Z"></path>
    <path class="cls-7" d="M521.2,1351.43c-1.79.39-3.57.72-5.35,1.06-9.03-32.79-18.07-65.53-27.05-98.26-1-3.51-1.95-7.03-2.96-10.54-4.85-17.68-9.7-35.41-14.61-53.09,1.62-1.11,3.24-2.23,4.8-3.23,4.18,15.23,8.36,30.39,12.55,45.62,1.01,3.51,1.95,7.08,2.96,10.6,9.87,35.97,19.8,71.89,29.67,107.86Z"></path>
    <path class="cls-7" d="M728.32,873.21c-7.92,146.78-20.47,293.29-37.76,439.29-1.9.5-3.79,1-5.63,1.45,17.51-148.07,30.28-296.69,38.2-445.6,1.67,1.62,3.4,3.24,5.19,4.85Z"></path>
    <path class="cls-7" d="M550.53,1013.36c-19.69,76.74-39.37,153.48-59,230.22-.95,3.57-1.84,7.08-2.73,10.65-1-3.51-1.95-7.03-2.96-10.54.95-3.57,1.84-7.14,2.73-10.71,18.91-73.67,37.76-147.34,56.66-221.07.89-3.4,6.13-1.95,5.3,1.45Z"></path>
    <path class="cls-7" d="M540.65,962.23c-16.6,42.11-32.33,84.55-47.16,127.31-1.15,3.33,4.12,4.76,5.27,1.45,14.84-42.76,30.56-85.2,47.16-127.31,1.29-3.27-3.99-4.69-5.27-1.45h0Z"></path>
    <path class="cls-11" d="M269.29,668.37c-20.75,35.58-38.7,72.61-53.76,110.81-1.45.78-3.96,1.95-7.14,3.4,15.56-40.38,34.35-79.47,56.16-117,1.79-3.01,6.52-.28,4.74,2.79Z"></path>
    <path class="cls-11" d="M440.22,679.91l-.06.06c-1.39,1.23-2.73,2.4-4.13,3.57-10.71-7.7-20.24-17.12-28.16-27.55-22.42-29.5-27.55-66.76-27.72-102.89-.45-74.01,9.65-148.74,26.94-221.01,2.68-3.18,5.35-6.36,7.97-9.42-16.67,67.59-26.55,136.69-29,206.29-1.39,37.92-1.23,79.02,18.74,112.76,8.76,14.83,21.03,28.16,35.41,38.2Z"></path>
    <path class="cls-11" d="M584.69,366.6c6.84,48.66,12.79,97.45,18.34,146.27.39,3.45,5.86,3.49,5.46,0-5.6-49.31-11.62-98.58-18.53-147.72-.49-3.47-5.75-1.99-5.27,1.45h0Z"></path>
    <path class="cls-11" d="M815.32,596.93c-.06,2.01-.06,3.96-.11,5.91-40.27-18.01-80.81-35.36-121.58-52.09-29.44-12.1-58.95-23.81-88.62-35.25-3.23-1.28-1.84-6.53,1.45-5.3,29.45,11.32,58.73,22.98,87.95,34.97,40.54,16.62,80.86,33.91,120.91,51.75Z"></path>
    <path class="cls-11" d="M739,477.48c-1.02,29.26-2.23,58.51-3.25,87.76-.12,3.52,5.34,3.51,5.46,0,1.02-29.26,2.23-58.51,3.25-87.76.12-3.52-5.34-3.51-5.46,0h0Z"></path>
    <path class="cls-5" d="M844.55,625.54c-17.23,30.56-34.91,61.18-55.38,89.84-2.01,2.84-6.75.11-4.69-2.73,20.36-28.61,38.03-59.17,55.27-89.73.56.28,2.29,1.23,4.8,2.62Z"></path>
    <path class="cls-5" d="M786.09,716.66c17.98,7.02,35.86,14.29,53.84,21.31,3.28,1.28,4.7-4,1.45-5.27-17.98-7.02-35.86-14.29-53.84-21.31-3.28-1.28-4.7,4-1.45,5.27h0Z"></path>
    <path class="cls-5" d="M1013.53,835.17c-2.56,4.41-5.07,8.81-7.53,13.27-7.86,14.28-15,28.94-21.41,43.89-4.24,9.82-8.2,19.8-11.82,29.89-1.62-1-3.18-2.01-4.68-2.96.11-.22.17-.5.28-.73,7.08-19.63,15.34-38.76,24.82-57.39,4.85-9.65,10.65-20.36,16.17-29.72l4.18,3.74Z"></path>
    <path class="cls-11" d="M699.82,295.33c-.17.06-.28.17-.45.28-15.84,11.71-35.02,24.65-53.93,25.15-6.36.22-12.66-1-18.85-4.18-11.99-6.13-13.77-17.23-13.61-29.56.28-19.46,1.62-38.87,3.18-58.28,1.84.39,3.68.78,5.41,1.23-.95,11.6-1.73,23.26-2.23,34.91-.78,16.06-6.13,41.1,13.11,48.24,4.85,1.78,9.82,2.4,14.78,2.12,16.62-1,33.29-12.21,47.52-22.81,1.45.89,2.95,1.73,4.46,2.57.17.11.39.22.61.33Z"></path>
    <path class="cls-11" d="M763.74,304.37c-1.39,8.7-3.4,17.29-6.8,25.6-3.24,7.86-8.37,19.41-17.9,20.08-6.47.45-12.05-3.68-16.56-8.7-2.96-3.23-5.41-6.8-7.42-9.82-7.31-10.99-12.32-23.2-15.67-35.92-.06-.22-.11-.39-.17-.61.17.11.39.22.61.33,1.9,1.06,3.85,2.01,5.86,2.84,3.46,12.33,9.93,28.39,17.57,37.7,1.84,2.34,3.74,4.24,5.74,5.58,18.52,12.49,27.27-21.64,30.11-42.05,1.51,1.62,3.07,3.23,4.63,4.96Z"></path>
    <path class="cls-11" d="M691.66,295.21c-16.76,44.72-33.35,89.5-51.06,133.86-1.3,3.27,3.98,4.68,5.27,1.45,17.71-44.36,34.3-89.14,51.06-133.86,1.24-3.3-4.04-4.72-5.27-1.45h0Z"></path>
    <path class="cls-11" d="M700.49,340.13c-.17-.11-.34-.14-.51-.22-.25-.17-.5-.34-.82-.43-4.44-1.32-9.5-.42-12.15,3.68-2.37,3.65-1.78,8.48,1.25,11.57,3.61,3.69,10.2,3.8,13.84.05,4.02-4.14,3.14-11.46-1.6-14.65ZM697.64,351.26c-1.99,1.46-5.15.71-6.21-1.52-.62-1.32-.42-2.89.55-3.99,1.39-1.57,3.5-1.43,5.37-.97,1.86,1.68,2.62,4.76.29,6.48Z"></path>
    <path class="cls-11" d="M677.54,399.1c-.17-.11-.34-.14-.51-.22-.25-.17-.49-.34-.82-.43-4.44-1.32-9.5-.42-12.16,3.68-2.37,3.65-1.78,8.48,1.25,11.57,3.61,3.69,10.2,3.8,13.84.05,4.02-4.14,3.14-11.46-1.6-14.65ZM674.69,410.23c-1.99,1.46-5.15.71-6.2-1.52-.62-1.32-.42-2.89.55-3.99,1.39-1.57,3.5-1.43,5.37-.97,1.86,1.68,2.62,4.76.29,6.48Z"></path>
  </g>
</svg>